<?xml version="1.0" encoding="UTF-8" standalone="no"?>
<!DOCTYPE svg PUBLIC "-//W3C//DTD SVG 1.1//EN" "http://www.w3.org/Graphics/SVG/1.1/DTD/svg11.dtd">
<svg width="100%" height="100%" viewBox="0 0 1024 1025" version="1.1" xmlns="http://www.w3.org/2000/svg" xmlns:xlink="http://www.w3.org/1999/xlink" xml:space="preserve" xmlns:serif="http://www.serif.com/" style="fill-rule:evenodd;clip-rule:evenodd;stroke-linejoin:round;stroke-miterlimit:2;">
    <g transform="matrix(1,0,0,1,0,-1074)">
        <g id="iso_white" transform="matrix(1,0,0,4,-3287.1,1074.62)">
            <rect x="3287.1" y="0" width="1024" height="256" style="fill:none;"/>
            <g transform="matrix(2.20985,0,0,0.552463,2697.16,-136.928)">
                <g transform="matrix(1,0,0,1,-8.35555,-18.2236)">
                    <path d="M624.942,357.555C632.112,361.695 634.572,370.876 630.433,378.046C626.293,385.215 617.112,387.675 609.942,383.536L506.347,323.725L371,401.868L514.507,484.722C519.148,487.402 522.007,492.354 522.007,497.713L522.007,625.97C522.007,634.249 515.286,640.97 507.007,640.97C498.729,640.97 492.007,634.249 492.007,625.97L492.007,506.373L333.5,414.859C328.859,412.179 326,407.227 326,401.868C326,396.509 328.859,391.557 333.5,388.878L498.847,293.415C503.488,290.735 509.206,290.735 513.847,293.415L624.942,357.555Z" style="fill:white;"/>
                </g>
                <g transform="matrix(1,0,0,1,-8.35555,-18.2236)">
                    <path d="M326,466.69C326,458.411 332.721,451.69 341,451.69C349.278,451.69 356,458.411 356,466.69L356,584.135L507.839,671.8L658.015,585.096L658.015,428.611L570.906,478.904C563.736,483.043 554.555,480.583 550.415,473.413C546.276,466.244 548.736,457.062 555.906,452.923L665.515,389.64C670.156,386.961 675.874,386.961 680.515,389.64C685.156,392.32 688.015,397.271 688.015,402.63L688.015,593.756C688.015,599.115 685.156,604.067 680.515,606.747L515.339,702.111C510.698,704.79 504.98,704.79 500.339,702.111L333.5,605.786C328.859,603.106 326,598.154 326,592.795L326,466.69Z" style="fill:white;"/>
                </g>
            </g>
        </g>
    </g>
</svg>
